<svg xmlns="http://www.w3.org/2000/svg" version="1.1" xmlns:xlink="http://www.w3.org/1999/xlink" xmlns:svgjs="http://svgjs.dev/svgjs" width="1500" height="1500" viewBox="0 0 1500 1500"><rect width="1500" height="1500" fill="#ffffff"></rect><g transform="matrix(0.6666666666666666,0,0,0.6666666666666666,249.39393939393938,438.58569500674764)"><svg viewBox="0 0 396 247" data-background-color="#ffffff" preserveAspectRatio="xMidYMid meet" height="935" width="1500" xmlns="http://www.w3.org/2000/svg" xmlns:xlink="http://www.w3.org/1999/xlink"><g id="tight-bounds" transform="matrix(1,0,0,1,0.2400000000000091,-0.09999999999999432)"><svg viewBox="0 0 395.52 247.2" height="247.2" width="395.52"><g><svg></svg></g><g><svg viewBox="0 0 395.52 247.2" height="247.2" width="395.52"><g transform="matrix(1,0,0,1,75.54432000000001,58.99610127367953)"><svg viewBox="0 0 244.43135999999996 129.20779745264093" height="129.20779745264093" width="244.43135999999996"><g><svg viewBox="0 0 244.43136 129.20779745264096" height="129.20779745264093" width="244.43135999999996"><g transform="matrix(1,0,0,1,0,77.77556277777894)"><svg viewBox="0 0 244.43136 51.432234674862016" height="51.432234674862016" width="244.43136"><g id="textblocktransform"><svg viewBox="0 0 244.43136 51.432234674862016" height="51.432234674862016" width="244.43136" id="textblock"><g><svg viewBox="0 0 244.43136 28.364655691894313" height="28.364655691894313" width="244.43136"><g transform="matrix(1,0,0,1,0,0)"><svg width="244.43136" viewBox="2.49 -38.11 436.09 50.61" height="28.364655691894313" data-palette-color="#ee7d23"><path d="M3.76-9.74L6.15-3.2Q9.99-2.25 12.55-2.25L12.55-2.25Q13.87-2.25 15.15-2.53 16.43-2.81 17.44-3.49 18.46-4.17 19.08-5.31 19.7-6.45 19.7-8.15L19.7-8.15Q19.7-9.28 19.38-10.27 19.07-11.25 18.23-12.23 17.38-13.21 15.94-14.22 14.5-15.23 12.26-16.46L12.26-16.46Q9.81-17.77 8.04-18.96 6.27-20.14 5.11-21.41 3.96-22.68 3.41-24.15 2.86-25.61 2.86-27.49L2.86-27.49Q2.86-36.69 14.36-36.69L14.36-36.69Q18.43-36.69 22.95-35.55L22.95-35.55 22.95-27.1 21.95-27.1 19.31-33.3Q16.72-33.84 14.65-33.84L14.65-33.84Q11.16-33.84 9.2-32.51 7.25-31.18 7.25-28.39L7.25-28.39Q7.25-27.42 7.52-26.54 7.79-25.66 8.62-24.71 9.45-23.75 10.96-22.68 12.48-21.61 14.94-20.24L14.94-20.24Q17.38-18.92 19.2-17.8 21.02-16.67 22.22-15.49 23.41-14.31 24.01-12.92 24.61-11.52 24.61-9.69L24.61-9.69Q24.61-6.76 23.63-4.8 22.66-2.83 21.01-1.62 19.36-0.42 17.16 0.1 14.97 0.61 12.55 0.61L12.55 0.61Q11.13 0.61 9.92 0.52 8.72 0.44 7.54 0.26 6.37 0.07 5.15-0.23 3.93-0.54 2.49-0.95L2.49-0.95 2.49-9.74 3.76-9.74ZM56.59 0.05L53.88 0.61 46.65-18.31 40.5 0.05 37.79 0.61 29.78-22.41 26.58-24 26.58-25 38.55-25 38.55-24 34.49-22.41 39.84-5.96 46.24-25 48.9-25 55.73-6.45 60.13-22.41 56.05-24 56.05-25 66.09-25 66.09-24 62.79-22.34 56.59 0.05ZM76.34-2.76L80.83-1 80.83 0 67.33 0 67.33-1 71.82-2.76 71.82-21.09 67.33-22.85 67.33-23.85 75.83-25.61 76.34-25.1 76.34-2.76ZM70.19-32.96L70.19-32.96Q70.19-34.23 71.08-35.12 71.97-36.01 73.29-36.01L73.29-36.01Q74.56-36.01 75.45-35.12 76.34-34.23 76.34-32.96L76.34-32.96Q76.34-31.64 75.45-30.75 74.56-29.86 73.29-29.86L73.29-29.86Q71.97-29.86 71.08-30.75 70.19-31.64 70.19-32.96ZM101.07-23.1L93.33-21.61 93.33-2.76 99.58-1 99.58 0 84.32 0 84.32-1 88.81-2.76 88.81-21.51 84.07-22.85 84.07-23.85 88.81-24.85 88.81-27.34Q88.81-29.96 89.74-32.06 90.67-34.16 92.22-35.45 93.77-36.74 95.71-37.43 97.65-38.11 99.77-38.11L99.77-38.11Q100.53-38.11 101.8-37.92 103.07-37.72 103.73-37.45L103.73-37.45 103.73-30 102.73-30 99.26-35.84Q97.14-35.84 95.78-34.77 94.43-33.69 93.88-31.97 93.33-30.25 93.33-27.86L93.33-27.86 93.33-24.85 100.21-24.85 101.07-24.56 101.07-23.1ZM119.72-23.1L111.71-21.61 111.71-8.01Q111.71-6.35 111.97-5.22 112.22-4.1 112.72-3.55 113.22-3 113.78-2.8 114.35-2.59 115.13-2.59L115.13-2.59Q116.59-2.59 117.58-2.84 118.57-3.1 119.72-3.81L119.72-3.81 120.47-2.25Q117.03 0.61 112.93 0.61L112.93 0.61Q110.54 0.61 108.88-1.28 107.22-3.17 107.22-6.59L107.22-6.59 107.22-21.61 102.68-22.85 102.68-23.85 107.41-24.85 109.22-31.59 111.71-31.59 111.71-24.85 118.86-24.85 119.72-24.56 119.72-23.1ZM156.07 0L148.52 0 140.83-15.09Q140.12-14.99 139.38-14.94 138.63-14.89 137.85-14.89L137.85-14.89Q136.95-14.89 136.01-14.97 135.07-15.04 134.07-15.16L134.07-15.16 134.07-2.76 139.59-1 139.59 0 125.09 0 125.09-1 129.58-2.76 129.58-33.25 125.09-35.01 125.09-36.01 138.83-36.01Q142-36.01 144.47-35.29 146.94-34.57 148.63-33.25 150.33-31.93 151.21-30.09 152.09-28.25 152.09-26L152.09-26Q152.09-22.71 150.39-20.15 148.69-17.6 145.37-16.26L145.37-16.26 152.48-2.39 156.07-1 156.07 0ZM139.54-33.45L139.54-33.45 134.07-33.45 134.07-17.75Q135.07-17.63 135.96-17.57 136.85-17.5 137.71-17.5L137.71-17.5Q147.13-17.5 147.13-25.61L147.13-25.61Q147.13-29.54 145.18-31.49 143.22-33.45 139.54-33.45ZM181.38-13.06L180.67-12.35 164.88-12.35Q164.9-9.62 165.66-7.59 166.42-5.57 167.71-4.42 169-3.27 170.55-2.73 172.1-2.2 173.94-2.2L173.94-2.2Q176.47-2.2 179.38-3.91L179.38-3.91 180.14-2.44Q178.09-0.63 176.03-0.01 173.98 0.61 171.37 0.61L171.37 0.61Q169.1 0.61 167-0.35 164.9-1.32 163.32-3.02 161.73-4.71 160.78-7.18 159.82-9.64 159.82-12.5L159.82-12.5Q159.82-15.21 160.52-17.44 161.22-19.68 162.36-21.17 163.51-22.66 165.04-23.68 166.56-24.71 168.16-25.16 169.76-25.61 171.42-25.61L171.42-25.61Q173.5-25.61 175.27-24.84 177.04-24.07 178.42-22.57 179.79-21.07 180.59-18.63 181.38-16.19 181.38-13.06L181.38-13.06ZM171.52-23.24L171.52-23.24Q168.71-23.24 167.04-21.02 165.37-18.8 164.98-14.94L164.98-14.94 176.62-14.94Q176.62-18.85 175.3-21.04 173.98-23.24 171.52-23.24ZM186.38-8.25L187.63-8.25 190.24-2.71Q190.56-2.51 191.02-2.36 191.49-2.2 192.02-2.08 192.56-1.95 193.12-1.88 193.68-1.81 194.22-1.81L194.22-1.81Q195.47-1.81 196.48-2.06 197.49-2.32 198.22-2.8 198.96-3.27 199.35-3.97 199.74-4.66 199.74-5.54L199.74-5.54Q199.74-6.69 198.8-7.73 197.86-8.76 196.15-9.74L196.15-9.74 193.54-11.21Q192.15-11.94 190.94-12.72 189.73-13.5 188.83-14.43 187.92-15.36 187.4-16.48 186.87-17.6 186.87-18.99L186.87-18.99Q186.87-20.68 187.53-21.92 188.19-23.17 189.41-23.99 190.63-24.8 192.35-25.21 194.07-25.61 196.17-25.61L196.17-25.61Q199.4-25.61 202.62-24.56L202.62-24.56 202.52-17.5 201.52-17.5 198.93-23.24Q198-23.36 197.33-23.44 196.66-23.51 196.22-23.51L196.22-23.51Q194.9-23.51 193.94-23.21 192.98-22.9 192.35-22.4 191.73-21.9 191.43-21.26 191.12-20.63 191.12-19.95L191.12-19.95Q191.12-19.14 191.43-18.49 191.73-17.85 192.33-17.26 192.93-16.67 193.83-16.1 194.73-15.53 195.93-14.89L195.93-14.89Q197.64-13.96 198.75-13.38 199.86-12.79 200.35-12.45L200.35-12.45Q204.18-9.89 204.18-6.54L204.18-6.54Q204.18-4.74 203.32-3.38 202.45-2.03 201.04-1.11 199.64-0.2 197.88 0.26 196.13 0.71 194.34 0.71L194.34 0.71Q193.42 0.71 192.34 0.59 191.27 0.46 190.19 0.24 189.12 0.02 188.13-0.28 187.14-0.59 186.38-0.95L186.38-0.95 186.38-8.25ZM224.42-23.1L216.41-21.61 216.41-8.01Q216.41-6.35 216.67-5.22 216.92-4.1 217.42-3.55 217.92-3 218.49-2.8 219.05-2.59 219.83-2.59L219.83-2.59Q221.29-2.59 222.28-2.84 223.27-3.1 224.42-3.81L224.42-3.81 225.18-2.25Q221.73 0.61 217.63 0.61L217.63 0.61Q215.24 0.61 213.58-1.28 211.92-3.17 211.92-6.59L211.92-6.59 211.92-21.61 207.38-22.85 207.38-23.85 212.11-24.85 213.92-31.59 216.41-31.59 216.41-24.85 223.56-24.85 224.42-24.56 224.42-23.1ZM260.77 0L253.22 0 245.53-15.09Q244.83-14.99 244.08-14.94 243.34-14.89 242.56-14.89L242.56-14.89Q241.65-14.89 240.71-14.97 239.77-15.04 238.77-15.16L238.77-15.16 238.77-2.76 244.29-1 244.29 0 229.79 0 229.79-1 234.28-2.76 234.28-33.25 229.79-35.01 229.79-36.01 243.53-36.01Q246.71-36.01 249.17-35.29 251.64-34.57 253.33-33.25 255.03-31.93 255.91-30.09 256.79-28.25 256.79-26L256.79-26Q256.79-22.71 255.09-20.15 253.4-17.6 250.08-16.26L250.08-16.26 257.18-2.39 260.77-1 260.77 0ZM244.24-33.45L244.24-33.45 238.77-33.45 238.77-17.75Q239.77-17.63 240.66-17.57 241.55-17.5 242.41-17.5L242.41-17.5Q251.83-17.5 251.83-25.61L251.83-25.61Q251.83-29.54 249.88-31.49 247.93-33.45 244.24-33.45ZM286.08-13.06L285.38-12.35 269.58-12.35Q269.6-9.62 270.36-7.59 271.12-5.57 272.41-4.42 273.71-3.27 275.26-2.73 276.81-2.2 278.64-2.2L278.64-2.2Q281.18-2.2 284.08-3.91L284.08-3.91 284.84-2.44Q282.79-0.63 280.74-0.01 278.69 0.61 276.07 0.61L276.07 0.61Q273.8 0.61 271.7-0.35 269.6-1.32 268.02-3.02 266.43-4.71 265.48-7.18 264.53-9.64 264.53-12.5L264.53-12.5Q264.53-15.21 265.22-17.44 265.92-19.68 267.06-21.17 268.21-22.66 269.74-23.68 271.26-24.71 272.86-25.16 274.46-25.61 276.12-25.61L276.12-25.61Q278.2-25.61 279.97-24.84 281.74-24.07 283.12-22.57 284.5-21.07 285.29-18.63 286.08-16.19 286.08-13.06L286.08-13.06ZM276.22-23.24L276.22-23.24Q273.41-23.24 271.74-21.02 270.07-18.8 269.68-14.94L269.68-14.94 281.32-14.94Q281.32-18.85 280-21.04 278.69-23.24 276.22-23.24ZM316.62 12.5L301.63 12.5 301.63 11.5 307.64 9.74 307.64-2.2Q306.2-0.81 304.37-0.1 302.54 0.61 300.73 0.61L300.73 0.61Q298.7 0.61 296.82-0.31 294.94-1.22 293.5-2.87 292.06-4.52 291.2-7.02 290.33-9.52 290.33-12.5L290.33-12.5Q290.33-15.01 291.01-17.16 291.7-19.31 292.88-20.84 294.06-22.36 295.65-23.46 297.24-24.56 299.08-25.09 300.92-25.61 302.88-25.61L302.88-25.61Q306.1-25.61 309.08-24.19L309.08-24.19 310.64-26.34 312.13-26.34 312.13 9.74 316.62 11.5 316.62 12.5ZM302.44-2L302.44-2Q305.37-2 307.64-4.91L307.64-4.91 307.64-20.8Q306.42-22.19 305.21-22.64 304-23.1 302.63-23.1L302.63-23.1Q300.34-23.1 298.67-21.56 296.99-20.02 296.21-17.66 295.43-15.31 295.43-12.5L295.43-12.5Q295.43-7.76 297.27-4.88 299.12-2 302.44-2ZM322.14-21.09L317.65-22.85 317.65-23.85 326.14-25.61 326.63-25.1 326.63-8.84Q326.63-5.35 327.85-3.97 329.07-2.59 331.93-2.59L331.93-2.59Q335.3-2.59 337.84-4.71L337.84-4.71 337.84-21.09 333.34-22.85 333.34-23.85 341.84-25.61 342.33-25.1 342.33-3.39 346.85-2.15 346.85-1.25 338.35 0.61 337.84 0.1 337.84-2.81Q336.15-1.2 333.93-0.29 331.71 0.61 329.49 0.61L329.49 0.61Q328.02 0.61 326.73 0.15 325.43-0.32 324.4-1.26 323.36-2.2 322.75-3.76 322.14-5.32 322.14-7.35L322.14-7.35 322.14-21.09ZM372.14-13.06L371.43-12.35 355.63-12.35Q355.66-9.62 356.41-7.59 357.17-5.57 358.46-4.42 359.76-3.27 361.31-2.73 362.86-2.2 364.69-2.2L364.69-2.2Q367.23-2.2 370.13-3.91L370.13-3.91 370.89-2.44Q368.84-0.63 366.79-0.01 364.74 0.61 362.13 0.61L362.13 0.61Q359.86 0.61 357.76-0.35 355.66-1.32 354.07-3.02 352.48-4.71 351.53-7.18 350.58-9.64 350.58-12.5L350.58-12.5Q350.58-15.21 351.27-17.44 351.97-19.68 353.12-21.17 354.26-22.66 355.79-23.68 357.32-24.71 358.92-25.16 360.51-25.61 362.17-25.61L362.17-25.61Q364.25-25.61 366.02-24.84 367.79-24.07 369.17-22.57 370.55-21.07 371.34-18.63 372.14-16.19 372.14-13.06L372.14-13.06ZM362.27-23.24L362.27-23.24Q359.46-23.24 357.79-21.02 356.12-18.8 355.73-14.94L355.73-14.94 367.37-14.94Q367.37-18.85 366.06-21.04 364.74-23.24 362.27-23.24ZM377.14-8.25L378.38-8.25 381-2.71Q381.31-2.51 381.78-2.36 382.24-2.2 382.78-2.08 383.31-1.95 383.88-1.88 384.44-1.81 384.97-1.81L384.97-1.81Q386.22-1.81 387.23-2.06 388.25-2.32 388.98-2.8 389.71-3.27 390.1-3.97 390.49-4.66 390.49-5.54L390.49-5.54Q390.49-6.69 389.55-7.73 388.61-8.76 386.9-9.74L386.9-9.74 384.29-11.21Q382.9-11.94 381.69-12.72 380.48-13.5 379.58-14.43 378.68-15.36 378.15-16.48 377.63-17.6 377.63-18.99L377.63-18.99Q377.63-20.68 378.29-21.92 378.94-23.17 380.17-23.99 381.39-24.8 383.11-25.21 384.83-25.61 386.93-25.61L386.93-25.61Q390.15-25.61 393.37-24.56L393.37-24.56 393.28-17.5 392.27-17.5 389.69-23.24Q388.76-23.36 388.09-23.44 387.42-23.51 386.98-23.51L386.98-23.51Q385.66-23.51 384.69-23.21 383.73-22.9 383.11-22.4 382.48-21.9 382.18-21.26 381.87-20.63 381.87-19.95L381.87-19.95Q381.87-19.14 382.18-18.49 382.48-17.85 383.08-17.26 383.68-16.67 384.58-16.1 385.49-15.53 386.68-14.89L386.68-14.89Q388.39-13.96 389.5-13.38 390.61-12.79 391.1-12.45L391.1-12.45Q394.94-9.89 394.94-6.54L394.94-6.54Q394.94-4.74 394.07-3.38 393.2-2.03 391.8-1.11 390.39-0.2 388.64 0.26 386.88 0.71 385.1 0.71L385.1 0.71Q384.17 0.71 383.09 0.59 382.02 0.46 380.95 0.24 379.87 0.02 378.88-0.28 377.89-0.59 377.14-0.95L377.14-0.95 377.14-8.25ZM415.17-23.1L407.16-21.61 407.16-8.01Q407.16-6.35 407.42-5.22 407.68-4.1 408.18-3.55 408.68-3 409.24-2.8 409.8-2.59 410.58-2.59L410.58-2.59Q412.05-2.59 413.04-2.84 414.03-3.1 415.17-3.81L415.17-3.81 415.93-2.25Q412.49 0.61 408.39 0.61L408.39 0.61Q405.99 0.61 404.33-1.28 402.67-3.17 402.67-6.59L402.67-6.59 402.67-21.61 398.13-22.85 398.13-23.85 402.87-24.85 404.67-31.59 407.16-31.59 407.16-24.85 414.32-24.85 415.17-24.56 415.17-23.1ZM420.79-8.25L422.03-8.25 424.64-2.71Q424.96-2.51 425.42-2.36 425.89-2.2 426.42-2.08 426.96-1.95 427.52-1.88 428.09-1.81 428.62-1.81L428.62-1.81Q429.87-1.81 430.88-2.06 431.89-2.32 432.63-2.8 433.36-3.27 433.75-3.97 434.14-4.66 434.14-5.54L434.14-5.54Q434.14-6.69 433.2-7.73 432.26-8.76 430.55-9.74L430.55-9.74 427.94-11.21Q426.55-11.94 425.34-12.72 424.13-13.5 423.23-14.43 422.32-15.36 421.8-16.48 421.27-17.6 421.27-18.99L421.27-18.99Q421.27-20.68 421.93-21.92 422.59-23.17 423.81-23.99 425.03-24.8 426.75-25.21 428.48-25.61 430.58-25.61L430.58-25.61Q433.8-25.61 437.02-24.56L437.02-24.56 436.92-17.5 435.92-17.5 433.33-23.24Q432.41-23.36 431.73-23.44 431.06-23.51 430.62-23.51L430.62-23.51Q429.31-23.51 428.34-23.21 427.38-22.9 426.75-22.4 426.13-21.9 425.83-21.26 425.52-20.63 425.52-19.95L425.52-19.95Q425.52-19.14 425.83-18.49 426.13-17.85 426.73-17.26 427.33-16.67 428.23-16.1 429.13-15.53 430.33-14.89L430.33-14.89Q432.04-13.96 433.15-13.38 434.26-12.79 434.75-12.45L434.75-12.45Q438.58-9.89 438.58-6.54L438.58-6.54Q438.58-4.74 437.72-3.38 436.85-2.03 435.45-1.11 434.04-0.2 432.28 0.26 430.53 0.71 428.74 0.71L428.74 0.71Q427.82 0.71 426.74 0.59 425.67 0.46 424.59 0.24 423.52 0.02 422.53-0.28 421.54-0.59 420.79-0.95L420.79-0.95 420.79-8.25Z" opacity="1" transform="matrix(1,0,0,1,0,0)" fill="#ee7d23" class="wordmark-text-0" data-fill-palette-color="primary" id="text-0"></path></svg></g></svg></g><g transform="matrix(1,0,0,1,46.68638976,35.06087014901396)"><svg viewBox="0 0 151.05858048000002 16.37136452584806" height="16.37136452584806" width="151.05858048000002"><g transform="matrix(1,0,0,1,0,0)"><svg width="151.05858048000002" viewBox="4.3 -38.4 461.31 50" height="16.37136452584806" data-palette-color="#ee7d23"><path d="M16.3 0.6Q13.4 0.6 10.25-0.15 7.1-0.9 4.3-2.2L4.3-2.2 4.3-6.95Q7.6-5.15 10.43-4.3 13.25-3.45 16-3.45L16-3.45Q19.45-3.45 21.35-5 23.25-6.55 23.25-9.25L23.25-9.25Q23.25-11.1 22.2-12.35 21.15-13.6 19.55-14.35 17.95-15.1 15.25-16L15.25-16Q12-17.1 10.03-18.1 8.05-19.1 6.65-20.95 5.25-22.8 5.25-25.75L5.25-25.75Q5.25-30.15 8.45-32.77 11.65-35.4 17.05-35.4L17.05-35.4Q22.3-35.4 26.7-33.15L26.7-33.15 26.7-28.55Q21.75-31.35 17.05-31.35L17.05-31.35Q13.6-31.35 11.65-29.98 9.7-28.6 9.7-26.2L9.7-26.2Q9.7-24.55 10.7-23.45 11.7-22.35 13.15-21.68 14.6-21 17.25-20.05L17.25-20.05Q20.55-18.95 22.65-17.9 24.75-16.85 26.23-14.85 27.7-12.85 27.7-9.7L27.7-9.7Q27.7-6.6 26.3-4.28 24.9-1.95 22.3-0.68 19.7 0.6 16.3 0.6L16.3 0.6ZM65.95-26.7Q69.65-26.7 71.55-24.43 73.45-22.15 73.45-18.1L73.45-18.1 73.45 0 69.05 0 69.05-17.5Q69.05-20 68-21.38 66.95-22.75 64.8-22.75L64.8-22.75Q62.6-22.75 61.1-21.95 59.6-21.15 57.65-19.35L57.65-19.35Q57.7-18.95 57.7-18.1L57.7-18.1 57.7 0 53.3 0 53.3-17.5Q53.3-20 52.25-21.38 51.2-22.75 49.05-22.75L49.05-22.75Q46.85-22.75 45.35-21.98 43.85-21.2 41.95-19.4L41.95-19.4 41.95 0 37.55 0 37.55-20.3 36.45-26.1 40.85-26.1 41.55-22.5Q43.8-24.75 45.62-25.73 47.45-26.7 50.2-26.7L50.2-26.7Q52.8-26.7 54.52-25.55 56.25-24.4 57.05-22.25L57.05-22.25Q59.45-24.65 61.3-25.68 63.15-26.7 65.95-26.7L65.95-26.7ZM104.65 0L100.25 0 99.55-3.75Q97.59-1.6 95.32-0.5 93.05 0.6 90.2 0.6L90.2 0.6Q86.65 0.6 84.45-1.43 82.25-3.45 82.25-6.8L82.25-6.8Q82.25-11.15 85.75-13.2 89.25-15.25 94.75-15.25L94.75-15.25Q96.75-15.25 99.15-15L99.15-15 99.15-16.8Q99.15-19.5 97.67-21.13 96.2-22.75 93.84-22.75L93.84-22.75Q91.05-22.75 88.77-22 86.5-21.25 84.09-19.65L84.09-19.65 84.09-23.9Q86.45-25.45 88.9-26.08 91.34-26.7 94.5-26.7L94.5-26.7Q98.5-26.7 101.02-24.15 103.55-21.6 103.55-17.4L103.55-17.4 103.55-5.8 104.65 0ZM91.09-3.1Q93.5-3.1 95.4-4.1 97.3-5.1 99.15-7L99.15-7 99.15-11.9 94.55-11.9Q87-11.9 87-7.05L87-7.05Q87-5.25 88.15-4.17 89.3-3.1 91.09-3.1L91.09-3.1ZM124.54-26.7L126.09-26.7 126.09-21.85 125.34-21.85Q122.99-21.85 121.12-21 119.24-20.15 117.99-18.55L117.99-18.55 117.99 0 113.59 0 113.59-20.3 112.49-26.1 116.89-26.1 117.79-21.45Q119.84-24.45 121.27-25.58 122.69-26.7 124.54-26.7L124.54-26.7ZM139.64-35.4L139.64-26.1 146.84-26.1 146.84-22.3 139.64-22.3 139.64-7.35Q139.64-5.5 140.47-4.38 141.29-3.25 142.89-3.25L142.89-3.25Q143.99-3.25 144.87-3.48 145.74-3.7 146.84-4.2L146.84-4.2 146.84-0.3Q145.69 0.25 144.64 0.43 143.59 0.6 142.09 0.6L142.09 0.6Q138.89 0.6 137.06-1.45 135.24-3.5 135.24-6.9L135.24-6.9 135.24-22.3 130.24-22.3 130.24-26.1 135.24-26.1 135.24-33.1 139.64-35.4ZM194.49 0L189.19 0 182.14-13.65 181.64-13.65 173.64-13.65 173.64 0 169.24 0 169.24-34.8 181.04-34.8Q187.29-34.8 190.34-32.18 193.39-29.55 193.39-24.5L193.39-24.5Q193.39-20.75 191.74-18.15 190.09-15.55 186.89-14.45L186.89-14.45 194.49 0ZM181.09-17.8Q184.99-17.8 186.81-19.33 188.64-20.85 188.64-24.5L188.64-24.5Q188.64-27.85 186.81-29.23 184.99-30.6 181.04-30.6L181.04-30.6 173.64-30.6 173.64-17.8 181.09-17.8ZM224.98-30.6L208.63-30.6 208.63-19.6 223.88-19.6 223.88-15.6 208.63-15.6 208.63-4.2 224.98-4.2 224.98 0 204.23 0 204.23-34.8 224.98-34.8 224.98-30.6ZM246.28 0.6Q243.38 0.6 240.23-0.15 237.08-0.9 234.28-2.2L234.28-2.2 234.28-6.95Q237.58-5.15 240.41-4.3 243.23-3.45 245.98-3.45L245.98-3.45Q249.43-3.45 251.33-5 253.23-6.55 253.23-9.25L253.23-9.25Q253.23-11.1 252.18-12.35 251.13-13.6 249.53-14.35 247.93-15.1 245.23-16L245.23-16Q241.98-17.1 240.01-18.1 238.03-19.1 236.63-20.95 235.23-22.8 235.23-25.75L235.23-25.75Q235.23-30.15 238.43-32.77 241.63-35.4 247.03-35.4L247.03-35.4Q252.28-35.4 256.68-33.15L256.68-33.15 256.68-28.55Q251.73-31.35 247.03-31.35L247.03-31.35Q243.58-31.35 241.63-29.98 239.68-28.6 239.68-26.2L239.68-26.2Q239.68-24.55 240.68-23.45 241.68-22.35 243.13-21.68 244.58-21 247.23-20.05L247.23-20.05Q250.53-18.95 252.63-17.9 254.73-16.85 256.21-14.85 257.68-12.85 257.68-9.7L257.68-9.7Q257.68-6.6 256.28-4.28 254.88-1.95 252.28-0.68 249.68 0.6 246.28 0.6L246.28 0.6ZM275.78 0L275.78-30.4 265.28-30.4 265.28-34.8 290.68-34.8 290.68-30.4 280.18-30.4 280.18 0 275.78 0ZM312.77 0L312.77-37.7 317.17-37.7 317.17 0 312.77 0ZM328.97-32Q327.57-32 326.7-32.9 325.82-33.8 325.82-35.2L325.82-35.2Q325.82-36.6 326.7-37.5 327.57-38.4 328.97-38.4L328.97-38.4Q330.37-38.4 331.25-37.5 332.12-36.6 332.12-35.2L332.12-35.2Q332.12-33.8 331.25-32.9 330.37-32 328.97-32L328.97-32ZM326.77-26.1L331.17-26.1 331.17 0 326.77 0 326.77-26.1ZM353.52-26.7Q356.92-26.7 359.32-24.9 361.72-23.1 362.94-20 364.17-16.9 364.17-13L364.17-13Q364.17-9.1 362.74-6.03 361.32-2.95 358.64-1.2 355.97 0.55 352.32 0.55L352.32 0.55Q350.47 0.55 348.87 0.15 347.27-0.25 345.47-1L345.47-1 345.47 0 341.07 0 341.07-37.7 345.47-37.7 345.47-23.3Q348.72-26.7 353.52-26.7L353.52-26.7ZM351.87-3.35Q355.47-3.35 357.44-6.05 359.42-8.75 359.42-13L359.42-13Q359.42-17.25 357.89-19.95 356.37-22.65 353.12-22.65L353.12-22.65Q350.82-22.65 348.99-21.7 347.17-20.75 345.47-18.9L345.47-18.9 345.47-4.35Q348.72-3.35 351.87-3.35L351.87-3.35ZM384.52-26.7L386.07-26.7 386.07-21.85 385.32-21.85Q382.97-21.85 381.09-21 379.22-20.15 377.97-18.55L377.97-18.55 377.97 0 373.57 0 373.57-20.3 372.47-26.1 376.87-26.1 377.77-21.45Q379.82-24.45 381.24-25.58 382.67-26.7 384.52-26.7L384.52-26.7ZM414.61 0L410.21 0 409.51-3.75Q407.56-1.6 405.29-0.5 403.01 0.6 400.16 0.6L400.16 0.6Q396.61 0.6 394.41-1.43 392.21-3.45 392.21-6.8L392.21-6.8Q392.21-11.15 395.71-13.2 399.21-15.25 404.71-15.25L404.71-15.25Q406.71-15.25 409.11-15L409.11-15 409.11-16.8Q409.11-19.5 407.64-21.13 406.16-22.75 403.81-22.75L403.81-22.75Q401.01-22.75 398.74-22 396.46-21.25 394.06-19.65L394.06-19.65 394.06-23.9Q396.41-25.45 398.86-26.08 401.31-26.7 404.46-26.7L404.46-26.7Q408.46-26.7 410.99-24.15 413.51-21.6 413.51-17.4L413.51-17.4 413.51-5.8 414.61 0ZM401.06-3.1Q403.46-3.1 405.36-4.1 407.26-5.1 409.11-7L409.11-7 409.11-11.9 404.51-11.9Q396.96-11.9 396.96-7.05L396.96-7.05Q396.96-5.25 398.11-4.17 399.26-3.1 401.06-3.1L401.06-3.1ZM434.51-26.7L436.06-26.7 436.06-21.85 435.31-21.85Q432.96-21.85 431.09-21 429.21-20.15 427.96-18.55L427.96-18.55 427.96 0 423.56 0 423.56-20.3 422.46-26.1 426.86-26.1 427.76-21.45Q429.81-24.45 431.24-25.58 432.66-26.7 434.51-26.7L434.51-26.7ZM460.91-26.1L465.61-26.1 450.66 11.6 446.16 11.6 450.66 0.3 440.31-26.1 444.81-26.1 452.96-4.7 460.91-26.1Z" opacity="1" transform="matrix(1,0,0,1,0,0)" fill="#ee7d23" class="slogan-text-1" data-fill-palette-color="secondary" id="text-1"></path></svg></g></svg></g></svg></g></svg></g><g transform="matrix(1,0,0,1,76.04894484873941,0)"><svg viewBox="0 0 92.33347030252118 71.0793483206593" height="71.0793483206593" width="92.33347030252118"><g><svg xmlns="http://www.w3.org/2000/svg" xmlns:xlink="http://www.w3.org/1999/xlink" version="1.1" x="8" y="0" viewBox="9.700000000000001 15.899999999999999 77.00000000000001 71.69999999999999" enable-background="new 0 0 100 100" xml:space="preserve" height="71.0793483206593" width="76.33347030252118" class="icon-icon-0" data-fill-palette-color="accent" id="icon-0"><g fill="#ea6b62" data-fill-palette-color="accent"><path d="M64.8 44.3c-2.4 0-4.7-1-6.4-2.8-3.2-3.5-3-9 0.5-12.2 1.6-1.5 3.7-2.3 5.9-2.3 2.4 0 4.7 1 6.4 2.8 3.2 3.5 3 9-0.5 12.2C69 43.5 67 44.3 64.8 44.3zM64.8 29.9c-1.5 0-2.9 0.5-3.9 1.5-1.1 1-1.8 2.5-1.9 4-0.1 1.5 0.5 3 1.5 4.2 1.1 1.2 2.6 1.9 4.3 1.9 1.5 0 2.9-0.5 3.9-1.5 2.3-2.2 2.5-5.8 0.3-8.2C67.9 30.5 66.4 29.9 64.8 29.9z" fill="#ea6b62" data-fill-palette-color="accent"></path></g><g fill="#ea6b62" data-fill-palette-color="accent"><path d="M56.5 80.4l-9.6-10.4c-2.2 1.6-4.8 2.5-7.5 2.5-3.5 0-6.9-1.5-9.3-4.1-4.4-4.8-4.4-12.1-0.3-16.9L20.2 41l1-1c5.5-5 12.8-7.6 20.2-7 14.2-14.2 25.7-17.1 39.5-17.1 1.4 0 2.8 0 4.4 0.1l1.4 0.1-0.1 1.4C86 33.8 82.4 46.1 66.2 59.9c0 7.4-3.2 14.5-8.6 19.5L56.5 80.4zM47.1 66l9.5 10.3c4.4-4.6 6.8-10.7 6.7-17.1l0-0.7 0.5-0.4c15.5-13 19.1-24 19.9-39.4-1 0-1.9 0-2.8 0-13.2 0-24.2 2.8-38 16.8L42.5 36l-0.7-0.1c-0.8-0.1-1.6-0.1-2.4-0.1-5.6 0-10.9 1.9-15.2 5.4l9.5 10.3-1 1c-4 3.7-4.2 9.9-0.6 13.9 1.9 2 4.5 3.2 7.2 3.2 2.5 0 4.8-0.9 6.7-2.6L47.1 66z" fill="#ea6b62" data-fill-palette-color="accent"></path></g><g fill="#ea6b62" data-fill-palette-color="accent"><g fill="#ea6b62" data-fill-palette-color="accent"><g fill="#ea6b62" data-fill-palette-color="accent"><path d="M27.2 70.1c2.4 2.4 1.5 6.9-1.9 10.3-4 4-13.6 6.6-14 6.8l-1.6 0.4 0.5-1.6c0.1-0.4 3-10.3 6.8-14 2-2 4.6-3.2 6.8-3.2C25.1 68.8 26.3 69.2 27.2 70.1z" fill="#ea6b62" data-fill-palette-color="accent"></path></g></g></g></svg></g></svg></g><g><rect width="76.04894484873938" height="2.5579539226197032" y="67.5213943980396" x="168.3824151512606" fill="#ea6b62" data-fill-palette-color="accent"></rect><rect width="76.04894484873938" height="2.5579539226197032" y="67.5213943980396" x="2.842170943040401e-14" fill="#ea6b62" data-fill-palette-color="accent"></rect><rect width="76.04894484873938" height="2.5579539226197032" y="62.4054865528002" x="168.3824151512606" fill="#ea6b62" data-fill-palette-color="accent"></rect><rect width="76.04894484873938" height="2.5579539226197032" y="62.4054865528002" x="2.842170943040401e-14" fill="#ea6b62" data-fill-palette-color="accent"></rect></g></svg></g></svg></g><g><path d="M98.498 52.3A122.216 122.216 0 0 1 297.022 52.3L294.464 52.3A119.658 119.658 0 0 0 101.056 52.3L98.498 52.3M98.498 194.9A122.216 122.216 0 0 0 297.022 194.9L294.464 194.9A119.658 119.658 0 0 1 101.056 194.9L98.498 194.9" fill="#ee7d23" stroke="transparent" data-fill-palette-color="tertiary"></path></g></svg></g><defs></defs></svg><rect width="395.52" height="247.2" fill="none" stroke="none" visibility="hidden"></rect></g></svg></g></svg>